# xmcd
#
# Track frame offsets: 
#        150
#        13577
#        25792
#        44617
#        57770
#        68795
#        91242
#        102990
#        117945
#        129420
#        145475
#        165957
#        181760
#        193742
#        205842
#        220707
#        231157
#        242977
#
# Disc length: 3397 seconds
#
# Revision: 4
# Processed by: cddbd v1.5.2PL0 Copyright (c) Steve Scherf et al.
# Submitted via: ExactAudioCopyFreeDBPlugin 1.0
#
DISCID=f70d4312
DTITLE=Various Artist - Soul Super-Stars - 18 Original Smash Hits
DYEAR=1988
DGENRE=Soul
TTITLE0=Sam and Dave - Soul Man
TTITLE1=The Drifters - Under The Boardwalk
TTITLE2=Billy Ocean - Love Really Hurts Without You
TTITLE3=Ben E. King - Stand By Me
TTITLE4=Sam Cooke - Everybody Loves To Cha Cha Cha
TTITLE5=Solomon Burke - Let Your Love Flow
TTITLE6=MAC and Katie Kissoon - Beautiful World Out There
TTITLE7=Detroit Emeralds - Feel The Need In Me
TTITLE8=The Isley Brothers - Twist And Shout
TTITLE9=Barry Biggs - Side Show
TTITLE10=Elli Hope from Liquid Gold - My Best Friend Told Me
TTITLE11=Bruce Ruffin - Mad About You
TTITLE12=Percy Sledge - Sittin' On The Dock Of The Bay
TTITLE13=Gladys Knight and the Pips - You Broke Your Promise
TTITLE14=Harold Melvin and The Blue Notes - Satisfaction Guaranteed
TTITLE15=Rufus Thomas - Walking The Dog
TTITLE16=Martha Reeves - Dancing In The Street
TTITLE17=Billy Joe Royal - Down In The Boondocks
EXTD=Soul Oldies
EXTT0=SOUL
EXTT1=SOUL
EXTT2=SOUL
EXTT3=SOUL
EXTT4=SOUL
EXTT5=SOUL
EXTT6=SOUL
EXTT7=SOUL
EXTT8=SOUL
EXTT9=SOUL
EXTT10=SOUL
EXTT11=SOUL
EXTT12=SOUL
EXTT13=SOUL
EXTT14=SOUL
EXTT15=SOUL
EXTT16=SOUL
EXTT17=SOUL
PLAYORDER=
